<svg width="25" height="25" viewBox="0 0 25 25" fill="none" xmlns="http://www.w3.org/2000/svg">
<rect width="24.1295" height="24.1295" rx="3.92805" fill="#F4F7FE"/>
<path d="M7.80007 9.93237H7.95238C8.53879 9.93237 9.01857 10.4122 9.01857 10.9986V16.3295C9.01857 16.9159 8.53879 17.3957 7.95238 17.3957H7.80007C7.21367 17.3957 6.73389 16.9159 6.73389 16.3295V10.9986C6.73389 10.4122 7.21367 9.93237 7.80007 9.93237ZM12.0648 6.73381C12.6512 6.73381 13.131 7.21359 13.131 7.8V16.3295C13.131 16.9159 12.6512 17.3957 12.0648 17.3957C11.4784 17.3957 10.9986 16.9159 10.9986 16.3295V7.8C10.9986 7.21359 11.4784 6.73381 12.0648 6.73381ZM16.3296 12.8263C16.916 12.8263 17.3957 13.3061 17.3957 13.8925V16.3295C17.3957 16.9159 16.916 17.3957 16.3296 17.3957C15.7432 17.3957 15.2634 16.9159 15.2634 16.3295V13.8925C15.2634 13.3061 15.7432 12.8263 16.3296 12.8263Z" fill="#03045E"/>
</svg>
