<svg width="23" height="23" viewBox="0 0 23 23" fill="none" xmlns="http://www.w3.org/2000/svg">
<path d="M17.336 10.0625V8.625H9.19019V4.3125C9.19019 3.93125 9.03874 3.56562 8.76915 3.29603C8.49957 3.02645 8.13393 2.875 7.75269 2.875C7.37144 2.875 7.0058 3.02645 6.73622 3.29603C6.46664 3.56562 6.31519 3.93125 6.31519 4.3125C6.31519 4.69375 6.46664 5.05938 6.73622 5.32897C7.0058 5.59855 7.37144 5.75 7.75269 5.75V8.625H4.87769V10.0625H7.75269V16.0042C7.75269 18.2658 9.5831 20.0963 11.8256 20.125C14.0681 20.0867 15.8506 18.2467 15.8123 16.0042C15.8123 14.4804 15.0935 13.0429 13.8956 12.0942C13.6881 11.9213 13.4633 11.7703 13.2248 11.6437C13.0139 11.5479 12.7839 11.5 12.5539 11.5C11.8735 11.5 11.2506 11.8737 10.9152 12.4583C10.7331 12.7458 10.6373 13.0813 10.6373 13.4167C10.6469 14.4708 11.4998 15.3333 12.5635 15.3333C13.1577 15.3333 13.7135 15.0362 14.0777 14.5667C14.2789 15.0171 14.3748 15.5058 14.3748 16.0042C14.4131 17.4417 13.2823 18.6396 11.8256 18.6875C10.3594 18.6875 9.1806 17.4704 9.19019 16.0042V10.0625H17.336Z" fill="black"/>
</svg>
